<mxfile host="app.diagrams.net" modified="2021-06-09T02:24:31.432Z" agent="5.0 (Macintosh; Intel Mac OS X 10_14_0) AppleWebKit/537.36 (KHTML, like Gecko) Chrome/91.0.4472.77 Safari/537.36" etag="XC4cIstvVhfa2MfFx7F5" version="14.7.6" type="github">
  <diagram name="Page-1" id="9f46799a-70d6-7492-0946-bef42562c5a5">
    <mxGraphModel dx="1184" dy="553" grid="1" gridSize="10" guides="1" tooltips="1" connect="1" arrows="1" fold="1" page="1" pageScale="1" pageWidth="1100" pageHeight="850" background="none" math="0" shadow="0">
      <root>
        <mxCell id="0" />
        <mxCell id="1" parent="0" />
        <mxCell id="GtaQLyDvOYzaf2lnGROW-2" value="kafka_cluster(kafka集群表)" style="swimlane;fontStyle=0;childLayout=stackLayout;horizontal=1;startSize=26;fillColor=#dae8fc;horizontalStack=0;resizeParent=1;resizeParentMax=0;resizeLast=0;collapsible=1;marginBottom=0;strokeColor=#6c8ebf;" parent="1" vertex="1">
          <mxGeometry x="160" y="144" width="260" height="626" as="geometry">
            <mxRectangle x="190" y="140" width="100" height="26" as="alternateBounds" />
          </mxGeometry>
        </mxCell>
        <mxCell id="GtaQLyDvOYzaf2lnGROW-3" value="+ id: bigint(20)" style="text;strokeColor=none;fillColor=none;align=left;verticalAlign=top;spacingLeft=4;spacingRight=4;overflow=hidden;rotatable=0;points=[[0,0.5],[1,0.5]];portConstraint=eastwest;" parent="GtaQLyDvOYzaf2lnGROW-2" vertex="1">
          <mxGeometry y="26" width="260" height="26" as="geometry" />
        </mxCell>
        <mxCell id="QRH5ez9Q3UF65QWrglyg-27" value="+ cluster_id: varchar(64) ?" style="text;strokeColor=#b85450;fillColor=#f8cecc;align=left;verticalAlign=top;spacingLeft=4;spacingRight=4;overflow=hidden;rotatable=0;points=[[0,0.5],[1,0.5]];portConstraint=eastwest;" parent="GtaQLyDvOYzaf2lnGROW-2" vertex="1">
          <mxGeometry y="52" width="260" height="26" as="geometry" />
        </mxCell>
        <mxCell id="GtaQLyDvOYzaf2lnGROW-4" value="+ cluster_type:varchar(16)  业务、度量、追踪" style="text;align=left;verticalAlign=top;spacingLeft=4;spacingRight=4;overflow=hidden;rotatable=0;points=[[0,0.5],[1,0.5]];portConstraint=eastwest;" parent="GtaQLyDvOYzaf2lnGROW-2" vertex="1">
          <mxGeometry y="78" width="260" height="26" as="geometry" />
        </mxCell>
        <mxCell id="GtaQLyDvOYzaf2lnGROW-5" value="+ cluster_name: varchar(64)&#xa;&#xa;+ workspace_id   bigint(20)&#xa;&#xa;+namespace     varchar(20)&#xa;&#xa;+node_type  varchar(64)&#xa;&#xa;+create_type varchar(64)&#xa;&#xa;+admin_name varchar(64)&#xa;&#xa;+admin_password  varchar(64)&#xa;&#xa;+available_zone  varchar(64)&#xa;&#xa;+cluster_status  varchar（16）&#xa;&#xa;+broker_count   int(11)&#xa;&#xa;+alive_broker_count int(11)&#xa;&#xa;+kafka_version int(11)&#xa;&#xa;+bootstrap_server varchar(256)&#xa;&#xa;+zk_connect varchar(256)&#xa;&#xa;+zk_id  varchar(36)&#xa;&#xa;+description varchar(256) &#xa;&#xa;+created_time timestamp&#xa;&#xa;+updated_time timestamp" style="text;strokeColor=none;fillColor=none;align=left;verticalAlign=top;spacingLeft=4;spacingRight=4;overflow=hidden;rotatable=0;points=[[0,0.5],[1,0.5]];portConstraint=eastwest;" parent="GtaQLyDvOYzaf2lnGROW-2" vertex="1">
          <mxGeometry y="104" width="260" height="522" as="geometry" />
        </mxCell>
        <mxCell id="GtaQLyDvOYzaf2lnGROW-6" value="kafka_cluster_node（kafka集群节点表）" style="swimlane;fontStyle=0;childLayout=stackLayout;horizontal=1;startSize=26;fillColor=#dae8fc;horizontalStack=0;resizeParent=1;resizeParentMax=0;resizeLast=0;collapsible=1;marginBottom=0;strokeColor=#6c8ebf;" parent="1" vertex="1">
          <mxGeometry x="520" y="110" width="230" height="450" as="geometry">
            <mxRectangle x="480" y="140" width="140" height="26" as="alternateBounds" />
          </mxGeometry>
        </mxCell>
        <mxCell id="GtaQLyDvOYzaf2lnGROW-7" value="+ id: bigint(20)" style="text;strokeColor=none;fillColor=none;align=left;verticalAlign=top;spacingLeft=4;spacingRight=4;overflow=hidden;rotatable=0;points=[[0,0.5],[1,0.5]];portConstraint=eastwest;" parent="GtaQLyDvOYzaf2lnGROW-6" vertex="1">
          <mxGeometry y="26" width="230" height="26" as="geometry" />
        </mxCell>
        <mxCell id="GtaQLyDvOYzaf2lnGROW-8" value="+ cluster_id: int(64)" style="text;strokeColor=none;fillColor=none;align=left;verticalAlign=top;spacingLeft=4;spacingRight=4;overflow=hidden;rotatable=0;points=[[0,0.5],[1,0.5]];portConstraint=eastwest;" parent="GtaQLyDvOYzaf2lnGROW-6" vertex="1">
          <mxGeometry y="52" width="230" height="26" as="geometry" />
        </mxCell>
        <mxCell id="GtaQLyDvOYzaf2lnGROW-13" value="+ node_id: int(64)直接用id？" style="text;strokeColor=#b85450;fillColor=#f8cecc;align=left;verticalAlign=top;spacingLeft=4;spacingRight=4;overflow=hidden;rotatable=0;points=[[0,0.5],[1,0.5]];portConstraint=eastwest;" parent="GtaQLyDvOYzaf2lnGROW-6" vertex="1">
          <mxGeometry y="78" width="230" height="26" as="geometry" />
        </mxCell>
        <mxCell id="GtaQLyDvOYzaf2lnGROW-12" value="+ node_type: varchar(64)？&#xa;&#xa;+available_zone  varchar(64)集群表？" style="text;strokeColor=#d6b656;fillColor=#fff2cc;align=left;verticalAlign=top;spacingLeft=4;spacingRight=4;overflow=hidden;rotatable=0;points=[[0,0.5],[1,0.5]];portConstraint=eastwest;shadow=0;rounded=1;" parent="GtaQLyDvOYzaf2lnGROW-6" vertex="1">
          <mxGeometry y="104" width="230" height="50" as="geometry" />
        </mxCell>
        <mxCell id="GtaQLyDvOYzaf2lnGROW-9" value="+node_name varchar(64)&#xa;&#xa;+address  varchar(64)&#xa;&#xa;+port        int(8)&#xa;&#xa;+borker_id varchar(64)&#xa;&#xa;+node_status  varchar(16)&#xa;&#xa;+cpu_cores      int(11)&#xa;&#xa;+memory_size_gb int(11)&#xa;&#xa;+disk_size_gb         int(11)&#xa;&#xa;+created_time timestamp&#xa;&#xa;+updated_time timestamp" style="text;strokeColor=none;fillColor=none;align=left;verticalAlign=top;spacingLeft=4;spacingRight=4;overflow=hidden;rotatable=0;points=[[0,0.5],[1,0.5]];portConstraint=eastwest;" parent="GtaQLyDvOYzaf2lnGROW-6" vertex="1">
          <mxGeometry y="154" width="230" height="296" as="geometry" />
        </mxCell>
        <mxCell id="GtaQLyDvOYzaf2lnGROW-10" style="edgeStyle=orthogonalEdgeStyle;rounded=0;orthogonalLoop=1;jettySize=auto;html=1;fontColor=#000000;" parent="1" source="GtaQLyDvOYzaf2lnGROW-8" target="GtaQLyDvOYzaf2lnGROW-3" edge="1">
          <mxGeometry relative="1" as="geometry">
            <Array as="points">
              <mxPoint x="460" y="183" />
              <mxPoint x="460" y="183" />
            </Array>
          </mxGeometry>
        </mxCell>
        <mxCell id="GtaQLyDvOYzaf2lnGROW-19" style="edgeStyle=orthogonalEdgeStyle;rounded=0;orthogonalLoop=1;jettySize=auto;html=1;fontColor=#000000;" parent="1" source="GtaQLyDvOYzaf2lnGROW-14" target="GtaQLyDvOYzaf2lnGROW-3" edge="1">
          <mxGeometry relative="1" as="geometry">
            <mxPoint x="400" y="300" as="targetPoint" />
            <Array as="points">
              <mxPoint x="430" y="675" />
              <mxPoint x="430" y="183" />
            </Array>
          </mxGeometry>
        </mxCell>
        <mxCell id="GtaQLyDvOYzaf2lnGROW-14" value="kafka_cluster_config（kafka集群配置表）" style="swimlane;fontStyle=0;childLayout=stackLayout;horizontal=1;startSize=26;fillColor=#dae8fc;horizontalStack=0;resizeParent=1;resizeParentMax=0;resizeLast=0;collapsible=1;marginBottom=0;labelBackgroundColor=none;strokeColor=#6c8ebf;swimlaneLine=1;" parent="1" vertex="1">
          <mxGeometry x="480" y="610" width="230" height="130" as="geometry" />
        </mxCell>
        <mxCell id="GtaQLyDvOYzaf2lnGROW-15" value="+ id: bitint(20)" style="text;strokeColor=none;fillColor=none;align=left;verticalAlign=top;spacingLeft=4;spacingRight=4;overflow=hidden;rotatable=0;points=[[0,0.5],[1,0.5]];portConstraint=eastwest;" parent="GtaQLyDvOYzaf2lnGROW-14" vertex="1">
          <mxGeometry y="26" width="230" height="26" as="geometry" />
        </mxCell>
        <mxCell id="GtaQLyDvOYzaf2lnGROW-16" value="+ cluster_id: int(64)" style="text;strokeColor=none;fillColor=none;align=left;verticalAlign=top;spacingLeft=4;spacingRight=4;overflow=hidden;rotatable=0;points=[[0,0.5],[1,0.5]];portConstraint=eastwest;" parent="GtaQLyDvOYzaf2lnGROW-14" vertex="1">
          <mxGeometry y="52" width="230" height="26" as="geometry" />
        </mxCell>
        <mxCell id="GtaQLyDvOYzaf2lnGROW-17" value="+ config_key: varchar(64)" style="text;strokeColor=none;fillColor=none;align=left;verticalAlign=top;spacingLeft=4;spacingRight=4;overflow=hidden;rotatable=0;points=[[0,0.5],[1,0.5]];portConstraint=eastwest;" parent="GtaQLyDvOYzaf2lnGROW-14" vertex="1">
          <mxGeometry y="78" width="230" height="22" as="geometry" />
        </mxCell>
        <mxCell id="GtaQLyDvOYzaf2lnGROW-18" value="+ config_value: varchar(256)" style="text;strokeColor=none;fillColor=none;align=left;verticalAlign=top;spacingLeft=4;spacingRight=4;overflow=hidden;rotatable=0;points=[[0,0.5],[1,0.5]];portConstraint=eastwest;" parent="GtaQLyDvOYzaf2lnGROW-14" vertex="1">
          <mxGeometry y="100" width="230" height="30" as="geometry" />
        </mxCell>
        <mxCell id="GtaQLyDvOYzaf2lnGROW-20" value="kafka_ api_resource_operation&#xa;(kafka资源操作定义表)" style="swimlane;fontStyle=0;childLayout=stackLayout;horizontal=1;startSize=26;fillColor=#dae8fc;horizontalStack=0;resizeParent=1;resizeParentMax=0;resizeLast=0;collapsible=1;marginBottom=0;rounded=1;shadow=0;labelBackgroundColor=none;strokeColor=#6c8ebf;" parent="1" vertex="1">
          <mxGeometry x="850" y="130" width="200" height="380" as="geometry" />
        </mxCell>
        <mxCell id="GtaQLyDvOYzaf2lnGROW-21" value="+ ID: bigint(20)" style="text;strokeColor=none;fillColor=none;align=left;verticalAlign=top;spacingLeft=4;spacingRight=4;overflow=hidden;rotatable=0;points=[[0,0.5],[1,0.5]];portConstraint=eastwest;" parent="GtaQLyDvOYzaf2lnGROW-20" vertex="1">
          <mxGeometry y="26" width="200" height="26" as="geometry" />
        </mxCell>
        <mxCell id="GtaQLyDvOYzaf2lnGROW-22" value="+ API_URL: varchar(256)" style="text;strokeColor=none;fillColor=none;align=left;verticalAlign=top;spacingLeft=4;spacingRight=4;overflow=hidden;rotatable=0;points=[[0,0.5],[1,0.5]];portConstraint=eastwest;" parent="GtaQLyDvOYzaf2lnGROW-20" vertex="1">
          <mxGeometry y="52" width="200" height="26" as="geometry" />
        </mxCell>
        <mxCell id="GtaQLyDvOYzaf2lnGROW-23" value="+ API_METHOD: varchar(16)&#xa;&#xa;+RESOURCE_TYPE varchar(16)&#xa;&#xa;+OPERATION_TYPE varchar(16)&#xa;&#xa;+AUTH_SCOPE  varchar(16)&#xa;&#xa;+AUDIT_SWITCHER  tinyint(1)&#xa;&#xa;+EVENT_NAME    varchar(256)&#xa;&#xa;+EVENT_TYPE       varchar(50)&#xa;&#xa;+RESOURCES text&#xa;&#xa;+CREATED_TIME timestamp&#xa;&#xa;+UPDATED_TIME timestamp&#xa;&#xa;" style="text;strokeColor=none;fillColor=none;align=left;verticalAlign=top;spacingLeft=4;spacingRight=4;overflow=hidden;rotatable=0;points=[[0,0.5],[1,0.5]];portConstraint=eastwest;" parent="GtaQLyDvOYzaf2lnGROW-20" vertex="1">
          <mxGeometry y="78" width="200" height="302" as="geometry" />
        </mxCell>
        <mxCell id="GtaQLyDvOYzaf2lnGROW-24" value="kafka_cluser_user(kafka用户表)" style="swimlane;fontStyle=0;childLayout=stackLayout;horizontal=1;startSize=26;fillColor=#dae8fc;horizontalStack=0;resizeParent=1;resizeParentMax=0;resizeLast=0;collapsible=1;marginBottom=0;rounded=1;shadow=0;labelBackgroundColor=none;strokeColor=#6c8ebf;" parent="1" vertex="1">
          <mxGeometry x="870" y="540" width="180" height="234" as="geometry" />
        </mxCell>
        <mxCell id="GtaQLyDvOYzaf2lnGROW-25" value="+ id: bigint(20)" style="text;strokeColor=none;fillColor=none;align=left;verticalAlign=top;spacingLeft=4;spacingRight=4;overflow=hidden;rotatable=0;points=[[0,0.5],[1,0.5]];portConstraint=eastwest;" parent="GtaQLyDvOYzaf2lnGROW-24" vertex="1">
          <mxGeometry y="26" width="180" height="26" as="geometry" />
        </mxCell>
        <mxCell id="GtaQLyDvOYzaf2lnGROW-26" value="+ user_id: varchar(36)" style="text;strokeColor=#b85450;fillColor=#f8cecc;align=left;verticalAlign=top;spacingLeft=4;spacingRight=4;overflow=hidden;rotatable=0;points=[[0,0.5],[1,0.5]];portConstraint=eastwest;" parent="GtaQLyDvOYzaf2lnGROW-24" vertex="1">
          <mxGeometry y="52" width="180" height="26" as="geometry" />
        </mxCell>
        <mxCell id="GtaQLyDvOYzaf2lnGROW-28" value="+ cluster_id: int(64)&#xa;&#xa;&#xa;" style="text;strokeColor=none;fillColor=none;align=left;verticalAlign=top;spacingLeft=4;spacingRight=4;overflow=hidden;rotatable=0;points=[[0,0.5],[1,0.5]];portConstraint=eastwest;" parent="GtaQLyDvOYzaf2lnGROW-24" vertex="1">
          <mxGeometry y="78" width="180" height="26" as="geometry" />
        </mxCell>
        <mxCell id="GtaQLyDvOYzaf2lnGROW-32" value="+ user_account: varchar(64)&#xa;&#xa;&#xa;" style="text;strokeColor=none;fillColor=none;align=left;verticalAlign=top;spacingLeft=4;spacingRight=4;overflow=hidden;rotatable=0;points=[[0,0.5],[1,0.5]];portConstraint=eastwest;" parent="GtaQLyDvOYzaf2lnGROW-24" vertex="1">
          <mxGeometry y="104" width="180" height="26" as="geometry" />
        </mxCell>
        <mxCell id="mn4NM9Mv2tNIBoZWXV_b-1" value="+ user_password: varchar(64)&#xa;" style="text;strokeColor=none;fillColor=none;align=left;verticalAlign=top;spacingLeft=4;spacingRight=4;overflow=hidden;rotatable=0;points=[[0,0.5],[1,0.5]];portConstraint=eastwest;" vertex="1" parent="GtaQLyDvOYzaf2lnGROW-24">
          <mxGeometry y="130" width="180" height="26" as="geometry" />
        </mxCell>
        <mxCell id="GtaQLyDvOYzaf2lnGROW-31" value="+ quota: varchar(256)" style="text;strokeColor=none;fillColor=none;align=left;verticalAlign=top;spacingLeft=4;spacingRight=4;overflow=hidden;rotatable=0;points=[[0,0.5],[1,0.5]];portConstraint=eastwest;" parent="GtaQLyDvOYzaf2lnGROW-24" vertex="1">
          <mxGeometry y="156" width="180" height="26" as="geometry" />
        </mxCell>
        <mxCell id="GtaQLyDvOYzaf2lnGROW-30" value="+ created_time: timestamp&#xa;&#xa;&#xa;" style="text;strokeColor=none;fillColor=none;align=left;verticalAlign=top;spacingLeft=4;spacingRight=4;overflow=hidden;rotatable=0;points=[[0,0.5],[1,0.5]];portConstraint=eastwest;" parent="GtaQLyDvOYzaf2lnGROW-24" vertex="1">
          <mxGeometry y="182" width="180" height="26" as="geometry" />
        </mxCell>
        <mxCell id="GtaQLyDvOYzaf2lnGROW-27" value="+updated_time timestamp" style="text;strokeColor=none;fillColor=none;align=left;verticalAlign=top;spacingLeft=4;spacingRight=4;overflow=hidden;rotatable=0;points=[[0,0.5],[1,0.5]];portConstraint=eastwest;" parent="GtaQLyDvOYzaf2lnGROW-24" vertex="1">
          <mxGeometry y="208" width="180" height="26" as="geometry" />
        </mxCell>
        <mxCell id="GtaQLyDvOYzaf2lnGROW-33" value="&lt;font style=&quot;font-size: 14px&quot;&gt;集群、tpoic操作权限对接轻舟平台的权限系统？&lt;/font&gt;" style="text;html=1;strokeColor=#b85450;fillColor=#f8cecc;align=center;verticalAlign=middle;whiteSpace=wrap;rounded=0;shadow=0;labelBackgroundColor=none;strokeWidth=1;" parent="1" vertex="1">
          <mxGeometry x="840" y="80" width="330" height="40" as="geometry" />
        </mxCell>
        <mxCell id="GtaQLyDvOYzaf2lnGROW-34" value="kafka_topic（kafka主题信息表）" style="swimlane;fontStyle=0;childLayout=stackLayout;horizontal=1;startSize=26;fillColor=#dae8fc;horizontalStack=0;resizeParent=1;resizeParentMax=0;resizeLast=0;collapsible=1;marginBottom=0;rounded=1;shadow=0;labelBackgroundColor=none;strokeColor=#6c8ebf;strokeWidth=1;" parent="1" vertex="1">
          <mxGeometry x="200" y="790" width="220" height="288" as="geometry" />
        </mxCell>
        <mxCell id="GtaQLyDvOYzaf2lnGROW-35" value="+ id: bigint(20)" style="text;strokeColor=none;fillColor=none;align=left;verticalAlign=top;spacingLeft=4;spacingRight=4;overflow=hidden;rotatable=0;points=[[0,0.5],[1,0.5]];portConstraint=eastwest;" parent="GtaQLyDvOYzaf2lnGROW-34" vertex="1">
          <mxGeometry y="26" width="220" height="26" as="geometry" />
        </mxCell>
        <mxCell id="GtaQLyDvOYzaf2lnGROW-36" value="+ topic_id: varchar(64)" style="text;strokeColor=#b85450;fillColor=#f8cecc;align=left;verticalAlign=top;spacingLeft=4;spacingRight=4;overflow=hidden;rotatable=0;points=[[0,0.5],[1,0.5]];portConstraint=eastwest;" parent="GtaQLyDvOYzaf2lnGROW-34" vertex="1">
          <mxGeometry y="52" width="220" height="28" as="geometry" />
        </mxCell>
        <mxCell id="GtaQLyDvOYzaf2lnGROW-43" value="+ topic_name: charchar(64)" style="text;strokeColor=none;fillColor=none;align=left;verticalAlign=top;spacingLeft=4;spacingRight=4;overflow=hidden;rotatable=0;points=[[0,0.5],[1,0.5]];portConstraint=eastwest;" parent="GtaQLyDvOYzaf2lnGROW-34" vertex="1">
          <mxGeometry y="80" width="220" height="26" as="geometry" />
        </mxCell>
        <mxCell id="GtaQLyDvOYzaf2lnGROW-42" value="+ partitions:  int(11)" style="text;strokeColor=none;fillColor=none;align=left;verticalAlign=top;spacingLeft=4;spacingRight=4;overflow=hidden;rotatable=0;points=[[0,0.5],[1,0.5]];portConstraint=eastwest;" parent="GtaQLyDvOYzaf2lnGROW-34" vertex="1">
          <mxGeometry y="106" width="220" height="26" as="geometry" />
        </mxCell>
        <mxCell id="GtaQLyDvOYzaf2lnGROW-41" value="+ replications:int(11)" style="text;strokeColor=none;fillColor=none;align=left;verticalAlign=top;spacingLeft=4;spacingRight=4;overflow=hidden;rotatable=0;points=[[0,0.5],[1,0.5]];portConstraint=eastwest;" parent="GtaQLyDvOYzaf2lnGROW-34" vertex="1">
          <mxGeometry y="132" width="220" height="26" as="geometry" />
        </mxCell>
        <mxCell id="GtaQLyDvOYzaf2lnGROW-40" value="+ cluster_id: bigint(20)" style="text;strokeColor=none;fillColor=none;align=left;verticalAlign=top;spacingLeft=4;spacingRight=4;overflow=hidden;rotatable=0;points=[[0,0.5],[1,0.5]];portConstraint=eastwest;" parent="GtaQLyDvOYzaf2lnGROW-34" vertex="1">
          <mxGeometry y="158" width="220" height="26" as="geometry" />
        </mxCell>
        <mxCell id="GtaQLyDvOYzaf2lnGROW-39" value="+ topic_status: varchar(16)" style="text;strokeColor=none;fillColor=none;align=left;verticalAlign=top;spacingLeft=4;spacingRight=4;overflow=hidden;rotatable=0;points=[[0,0.5],[1,0.5]];portConstraint=eastwest;" parent="GtaQLyDvOYzaf2lnGROW-34" vertex="1">
          <mxGeometry y="184" width="220" height="26" as="geometry" />
        </mxCell>
        <mxCell id="GtaQLyDvOYzaf2lnGROW-46" value="+ created_time: timestamp" style="text;strokeColor=none;fillColor=none;align=left;verticalAlign=top;spacingLeft=4;spacingRight=4;overflow=hidden;rotatable=0;points=[[0,0.5],[1,0.5]];portConstraint=eastwest;" parent="GtaQLyDvOYzaf2lnGROW-34" vertex="1">
          <mxGeometry y="210" width="220" height="26" as="geometry" />
        </mxCell>
        <mxCell id="GtaQLyDvOYzaf2lnGROW-38" value="+ updated_time: timestamp" style="text;strokeColor=none;fillColor=none;align=left;verticalAlign=top;spacingLeft=4;spacingRight=4;overflow=hidden;rotatable=0;points=[[0,0.5],[1,0.5]];portConstraint=eastwest;" parent="GtaQLyDvOYzaf2lnGROW-34" vertex="1">
          <mxGeometry y="236" width="220" height="26" as="geometry" />
        </mxCell>
        <mxCell id="GtaQLyDvOYzaf2lnGROW-37" value="+ description: charchar(256)" style="text;strokeColor=none;fillColor=none;align=left;verticalAlign=top;spacingLeft=4;spacingRight=4;overflow=hidden;rotatable=0;points=[[0,0.5],[1,0.5]];portConstraint=eastwest;" parent="GtaQLyDvOYzaf2lnGROW-34" vertex="1">
          <mxGeometry y="262" width="220" height="26" as="geometry" />
        </mxCell>
        <mxCell id="GtaQLyDvOYzaf2lnGROW-45" style="edgeStyle=orthogonalEdgeStyle;rounded=0;orthogonalLoop=1;jettySize=auto;html=1;fontColor=#000000;entryX=0;entryY=0.5;entryDx=0;entryDy=0;" parent="1" source="GtaQLyDvOYzaf2lnGROW-40" target="GtaQLyDvOYzaf2lnGROW-3" edge="1">
          <mxGeometry relative="1" as="geometry">
            <mxPoint x="130" y="440" as="targetPoint" />
            <Array as="points">
              <mxPoint x="100" y="961" />
              <mxPoint x="100" y="183" />
            </Array>
          </mxGeometry>
        </mxCell>
        <mxCell id="GtaQLyDvOYzaf2lnGROW-47" style="edgeStyle=orthogonalEdgeStyle;rounded=0;orthogonalLoop=1;jettySize=auto;html=1;entryX=1.005;entryY=0.269;entryDx=0;entryDy=0;entryPerimeter=0;fontColor=#000000;exitX=0;exitY=0.5;exitDx=0;exitDy=0;" parent="1" source="GtaQLyDvOYzaf2lnGROW-28" target="GtaQLyDvOYzaf2lnGROW-3" edge="1">
          <mxGeometry relative="1" as="geometry">
            <Array as="points">
              <mxPoint x="850" y="631" />
              <mxPoint x="850" y="600" />
              <mxPoint x="510" y="600" />
              <mxPoint x="510" y="177" />
            </Array>
          </mxGeometry>
        </mxCell>
        <mxCell id="GtaQLyDvOYzaf2lnGROW-57" value="kafka_topic_config(kafka主题配置表)" style="swimlane;fontStyle=0;childLayout=stackLayout;horizontal=1;startSize=26;fillColor=#dae8fc;horizontalStack=0;resizeParent=1;resizeParentMax=0;resizeLast=0;collapsible=1;marginBottom=0;rounded=1;shadow=0;labelBackgroundColor=none;strokeColor=#6c8ebf;strokeWidth=1;" parent="1" vertex="1">
          <mxGeometry x="590" y="770" width="230" height="208" as="geometry" />
        </mxCell>
        <mxCell id="GtaQLyDvOYzaf2lnGROW-58" value="+ id: bigint(20)" style="text;strokeColor=none;fillColor=none;align=left;verticalAlign=top;spacingLeft=4;spacingRight=4;overflow=hidden;rotatable=0;points=[[0,0.5],[1,0.5]];portConstraint=eastwest;" parent="GtaQLyDvOYzaf2lnGROW-57" vertex="1">
          <mxGeometry y="26" width="230" height="26" as="geometry" />
        </mxCell>
        <mxCell id="GtaQLyDvOYzaf2lnGROW-59" value="+ topic_id: bigint(20)" style="text;strokeColor=none;fillColor=none;align=left;verticalAlign=top;spacingLeft=4;spacingRight=4;overflow=hidden;rotatable=0;points=[[0,0.5],[1,0.5]];portConstraint=eastwest;" parent="GtaQLyDvOYzaf2lnGROW-57" vertex="1">
          <mxGeometry y="52" width="230" height="26" as="geometry" />
        </mxCell>
        <mxCell id="GtaQLyDvOYzaf2lnGROW-64" value="+ config_key: varchar(64)" style="text;strokeColor=none;fillColor=none;align=left;verticalAlign=top;spacingLeft=4;spacingRight=4;overflow=hidden;rotatable=0;points=[[0,0.5],[1,0.5]];portConstraint=eastwest;fontColor=#000000;" parent="GtaQLyDvOYzaf2lnGROW-57" vertex="1">
          <mxGeometry y="78" width="230" height="26" as="geometry" />
        </mxCell>
        <mxCell id="GtaQLyDvOYzaf2lnGROW-65" value="+ config_value: varchar(64)" style="text;strokeColor=none;fillColor=none;align=left;verticalAlign=top;spacingLeft=4;spacingRight=4;overflow=hidden;rotatable=0;points=[[0,0.5],[1,0.5]];portConstraint=eastwest;fontColor=#000000;" parent="GtaQLyDvOYzaf2lnGROW-57" vertex="1">
          <mxGeometry y="104" width="230" height="26" as="geometry" />
        </mxCell>
        <mxCell id="GtaQLyDvOYzaf2lnGROW-63" value="+ config_type: varchar(16)类型有哪些？" style="text;strokeColor=#9673a6;fillColor=#e1d5e7;align=left;verticalAlign=top;spacingLeft=4;spacingRight=4;overflow=hidden;rotatable=0;points=[[0,0.5],[1,0.5]];portConstraint=eastwest;" parent="GtaQLyDvOYzaf2lnGROW-57" vertex="1">
          <mxGeometry y="130" width="230" height="26" as="geometry" />
        </mxCell>
        <mxCell id="GtaQLyDvOYzaf2lnGROW-66" value="+ created_time: timestamp" style="text;strokeColor=none;fillColor=none;align=left;verticalAlign=top;spacingLeft=4;spacingRight=4;overflow=hidden;rotatable=0;points=[[0,0.5],[1,0.5]];portConstraint=eastwest;fontColor=#000000;" parent="GtaQLyDvOYzaf2lnGROW-57" vertex="1">
          <mxGeometry y="156" width="230" height="26" as="geometry" />
        </mxCell>
        <mxCell id="GtaQLyDvOYzaf2lnGROW-60" value="+ updated_time: timestamp" style="text;strokeColor=none;fillColor=none;align=left;verticalAlign=top;spacingLeft=4;spacingRight=4;overflow=hidden;rotatable=0;points=[[0,0.5],[1,0.5]];portConstraint=eastwest;" parent="GtaQLyDvOYzaf2lnGROW-57" vertex="1">
          <mxGeometry y="182" width="230" height="26" as="geometry" />
        </mxCell>
        <mxCell id="GtaQLyDvOYzaf2lnGROW-62" style="edgeStyle=orthogonalEdgeStyle;rounded=0;orthogonalLoop=1;jettySize=auto;html=1;entryX=1;entryY=0.5;entryDx=0;entryDy=0;fontColor=#000000;" parent="1" source="GtaQLyDvOYzaf2lnGROW-59" target="GtaQLyDvOYzaf2lnGROW-35" edge="1">
          <mxGeometry relative="1" as="geometry" />
        </mxCell>
        <mxCell id="GtaQLyDvOYzaf2lnGROW-67" value="kafka_topic_user_permissions&#xa;(kafka用户主题访问控制)" style="swimlane;fontStyle=0;childLayout=stackLayout;horizontal=1;startSize=26;fillColor=#dae8fc;horizontalStack=0;resizeParent=1;resizeParentMax=0;resizeLast=0;collapsible=1;marginBottom=0;rounded=1;shadow=0;labelBackgroundColor=none;strokeColor=#6c8ebf;strokeWidth=1;arcSize=14;" parent="1" vertex="1">
          <mxGeometry x="610" y="1040" width="220" height="182" as="geometry" />
        </mxCell>
        <mxCell id="GtaQLyDvOYzaf2lnGROW-68" value="+ id: bigint(20)" style="text;strokeColor=none;fillColor=none;align=left;verticalAlign=top;spacingLeft=4;spacingRight=4;overflow=hidden;rotatable=0;points=[[0,0.5],[1,0.5]];portConstraint=eastwest;" parent="GtaQLyDvOYzaf2lnGROW-67" vertex="1">
          <mxGeometry y="26" width="220" height="26" as="geometry" />
        </mxCell>
        <mxCell id="GtaQLyDvOYzaf2lnGROW-69" value="+ topic_id: bigint(20)" style="text;strokeColor=none;fillColor=none;align=left;verticalAlign=top;spacingLeft=4;spacingRight=4;overflow=hidden;rotatable=0;points=[[0,0.5],[1,0.5]];portConstraint=eastwest;" parent="GtaQLyDvOYzaf2lnGROW-67" vertex="1">
          <mxGeometry y="52" width="220" height="26" as="geometry" />
        </mxCell>
        <mxCell id="GtaQLyDvOYzaf2lnGROW-74" value="+ user_id: bigint(20)" style="text;strokeColor=none;fillColor=none;align=left;verticalAlign=top;spacingLeft=4;spacingRight=4;overflow=hidden;rotatable=0;points=[[0,0.5],[1,0.5]];portConstraint=eastwest;" parent="GtaQLyDvOYzaf2lnGROW-67" vertex="1">
          <mxGeometry y="78" width="220" height="26" as="geometry" />
        </mxCell>
        <mxCell id="GtaQLyDvOYzaf2lnGROW-76" value="+ permissions: varchar(64)" style="text;strokeColor=none;fillColor=none;align=left;verticalAlign=top;spacingLeft=4;spacingRight=4;overflow=hidden;rotatable=0;points=[[0,0.5],[1,0.5]];portConstraint=eastwest;" parent="GtaQLyDvOYzaf2lnGROW-67" vertex="1">
          <mxGeometry y="104" width="220" height="26" as="geometry" />
        </mxCell>
        <mxCell id="GtaQLyDvOYzaf2lnGROW-73" value="+ created_time: timestamp" style="text;strokeColor=none;fillColor=none;align=left;verticalAlign=top;spacingLeft=4;spacingRight=4;overflow=hidden;rotatable=0;points=[[0,0.5],[1,0.5]];portConstraint=eastwest;" parent="GtaQLyDvOYzaf2lnGROW-67" vertex="1">
          <mxGeometry y="130" width="220" height="26" as="geometry" />
        </mxCell>
        <mxCell id="GtaQLyDvOYzaf2lnGROW-70" value="+ updated_time: timestamp" style="text;strokeColor=none;fillColor=none;align=left;verticalAlign=top;spacingLeft=4;spacingRight=4;overflow=hidden;rotatable=0;points=[[0,0.5],[1,0.5]];portConstraint=eastwest;" parent="GtaQLyDvOYzaf2lnGROW-67" vertex="1">
          <mxGeometry y="156" width="220" height="26" as="geometry" />
        </mxCell>
        <mxCell id="GtaQLyDvOYzaf2lnGROW-71" style="edgeStyle=orthogonalEdgeStyle;rounded=0;orthogonalLoop=1;jettySize=auto;html=1;exitX=0;exitY=0.5;exitDx=0;exitDy=0;fontColor=#000000;" parent="1" source="GtaQLyDvOYzaf2lnGROW-69" edge="1">
          <mxGeometry relative="1" as="geometry">
            <mxPoint x="421" y="838" as="targetPoint" />
            <Array as="points">
              <mxPoint x="500" y="1105" />
              <mxPoint x="500" y="838" />
            </Array>
          </mxGeometry>
        </mxCell>
        <mxCell id="GtaQLyDvOYzaf2lnGROW-72" style="edgeStyle=orthogonalEdgeStyle;rounded=0;orthogonalLoop=1;jettySize=auto;html=1;fontColor=#000000;entryX=0;entryY=0.5;entryDx=0;entryDy=0;" parent="1" source="GtaQLyDvOYzaf2lnGROW-74" target="GtaQLyDvOYzaf2lnGROW-25" edge="1">
          <mxGeometry relative="1" as="geometry">
            <mxPoint x="850" y="610" as="targetPoint" />
          </mxGeometry>
        </mxCell>
        <mxCell id="_0GhGSbBLmsNX__gtOgr-1" value="audit_info（审计表）" style="swimlane;fontStyle=0;childLayout=stackLayout;horizontal=1;startSize=26;fillColor=#dae8fc;horizontalStack=0;resizeParent=1;resizeParentMax=0;resizeLast=0;collapsible=1;marginBottom=0;strokeColor=#6c8ebf;" parent="1" vertex="1">
          <mxGeometry x="1300" y="700" width="140" height="52" as="geometry" />
        </mxCell>
        <mxCell id="_0GhGSbBLmsNX__gtOgr-2" value="+ id: bigint(20)" style="text;strokeColor=none;fillColor=none;align=left;verticalAlign=top;spacingLeft=4;spacingRight=4;overflow=hidden;rotatable=0;points=[[0,0.5],[1,0.5]];portConstraint=eastwest;" parent="_0GhGSbBLmsNX__gtOgr-1" vertex="1">
          <mxGeometry y="26" width="140" height="26" as="geometry" />
        </mxCell>
        <mxCell id="_0GhGSbBLmsNX__gtOgr-5" value="审计是否走平台的现有审计逻辑？" style="text;html=1;strokeColor=#b85450;fillColor=#f8cecc;align=center;verticalAlign=middle;whiteSpace=wrap;rounded=0;" parent="1" vertex="1">
          <mxGeometry x="1280" y="650" width="210" height="40" as="geometry" />
        </mxCell>
        <mxCell id="QRH5ez9Q3UF65QWrglyg-1" value="kafka_mirror_maker(kafka mm2信息表)" style="swimlane;fontStyle=0;childLayout=stackLayout;horizontal=1;startSize=26;fillColor=#dae8fc;horizontalStack=0;resizeParent=1;resizeParentMax=0;resizeLast=0;collapsible=1;marginBottom=0;strokeColor=#6c8ebf;" parent="1" vertex="1">
          <mxGeometry x="240" y="1310" width="260" height="312" as="geometry">
            <mxRectangle x="240" y="1310" width="240" height="26" as="alternateBounds" />
          </mxGeometry>
        </mxCell>
        <mxCell id="QRH5ez9Q3UF65QWrglyg-2" value="+ id: bigint(20)" style="text;strokeColor=none;fillColor=none;align=left;verticalAlign=top;spacingLeft=4;spacingRight=4;overflow=hidden;rotatable=0;points=[[0,0.5],[1,0.5]];portConstraint=eastwest;" parent="QRH5ez9Q3UF65QWrglyg-1" vertex="1">
          <mxGeometry y="26" width="260" height="26" as="geometry" />
        </mxCell>
        <mxCell id="QRH5ez9Q3UF65QWrglyg-3" value="+ mirror_maker_name: varchar(64)" style="text;strokeColor=none;fillColor=none;align=left;verticalAlign=top;spacingLeft=4;spacingRight=4;overflow=hidden;rotatable=0;points=[[0,0.5],[1,0.5]];portConstraint=eastwest;" parent="QRH5ez9Q3UF65QWrglyg-1" vertex="1">
          <mxGeometry y="52" width="260" height="26" as="geometry" />
        </mxCell>
        <mxCell id="QRH5ez9Q3UF65QWrglyg-8" value="+ node_type: varchar(16)" style="text;strokeColor=none;fillColor=none;align=left;verticalAlign=top;spacingLeft=4;spacingRight=4;overflow=hidden;rotatable=0;points=[[0,0.5],[1,0.5]];portConstraint=eastwest;" parent="QRH5ez9Q3UF65QWrglyg-1" vertex="1">
          <mxGeometry y="78" width="260" height="26" as="geometry" />
        </mxCell>
        <mxCell id="QRH5ez9Q3UF65QWrglyg-7" value="+ create_type: varchar(16)" style="text;strokeColor=none;fillColor=none;align=left;verticalAlign=top;spacingLeft=4;spacingRight=4;overflow=hidden;rotatable=0;points=[[0,0.5],[1,0.5]];portConstraint=eastwest;" parent="QRH5ez9Q3UF65QWrglyg-1" vertex="1">
          <mxGeometry y="104" width="260" height="26" as="geometry" />
        </mxCell>
        <mxCell id="QRH5ez9Q3UF65QWrglyg-6" value="+ host_ip: varchar(64)" style="text;strokeColor=none;fillColor=none;align=left;verticalAlign=top;spacingLeft=4;spacingRight=4;overflow=hidden;rotatable=0;points=[[0,0.5],[1,0.5]];portConstraint=eastwest;" parent="QRH5ez9Q3UF65QWrglyg-1" vertex="1">
          <mxGeometry y="130" width="260" height="26" as="geometry" />
        </mxCell>
        <mxCell id="QRH5ez9Q3UF65QWrglyg-10" value="+ mirror_maker_status: varchar(16)" style="text;strokeColor=none;fillColor=none;align=left;verticalAlign=top;spacingLeft=4;spacingRight=4;overflow=hidden;rotatable=0;points=[[0,0.5],[1,0.5]];portConstraint=eastwest;" parent="QRH5ez9Q3UF65QWrglyg-1" vertex="1">
          <mxGeometry y="156" width="260" height="26" as="geometry" />
        </mxCell>
        <mxCell id="QRH5ez9Q3UF65QWrglyg-19" value="+ description: varchar(256)" style="text;strokeColor=none;fillColor=none;align=left;verticalAlign=top;spacingLeft=4;spacingRight=4;overflow=hidden;rotatable=0;points=[[0,0.5],[1,0.5]];portConstraint=eastwest;" parent="QRH5ez9Q3UF65QWrglyg-1" vertex="1">
          <mxGeometry y="182" width="260" height="26" as="geometry" />
        </mxCell>
        <mxCell id="QRH5ez9Q3UF65QWrglyg-20" value="+ source_cluser_id: bigint(20)" style="text;strokeColor=none;fillColor=none;align=left;verticalAlign=top;spacingLeft=4;spacingRight=4;overflow=hidden;rotatable=0;points=[[0,0.5],[1,0.5]];portConstraint=eastwest;" parent="QRH5ez9Q3UF65QWrglyg-1" vertex="1">
          <mxGeometry y="208" width="260" height="26" as="geometry" />
        </mxCell>
        <mxCell id="QRH5ez9Q3UF65QWrglyg-9" value="+ sink_cluster_id: bigint(20)" style="text;strokeColor=none;fillColor=none;align=left;verticalAlign=top;spacingLeft=4;spacingRight=4;overflow=hidden;rotatable=0;points=[[0,0.5],[1,0.5]];portConstraint=eastwest;" parent="QRH5ez9Q3UF65QWrglyg-1" vertex="1">
          <mxGeometry y="234" width="260" height="26" as="geometry" />
        </mxCell>
        <mxCell id="QRH5ez9Q3UF65QWrglyg-5" value="+ created_time: timestamp" style="text;strokeColor=none;fillColor=none;align=left;verticalAlign=top;spacingLeft=4;spacingRight=4;overflow=hidden;rotatable=0;points=[[0,0.5],[1,0.5]];portConstraint=eastwest;" parent="QRH5ez9Q3UF65QWrglyg-1" vertex="1">
          <mxGeometry y="260" width="260" height="26" as="geometry" />
        </mxCell>
        <mxCell id="QRH5ez9Q3UF65QWrglyg-4" value="+ updated_time: timestamp" style="text;strokeColor=none;fillColor=none;align=left;verticalAlign=top;spacingLeft=4;spacingRight=4;overflow=hidden;rotatable=0;points=[[0,0.5],[1,0.5]];portConstraint=eastwest;" parent="QRH5ez9Q3UF65QWrglyg-1" vertex="1">
          <mxGeometry y="286" width="260" height="26" as="geometry" />
        </mxCell>
        <mxCell id="QRH5ez9Q3UF65QWrglyg-11" value="kafka_mirror_maker_config&#xa;(mm2配置表)" style="swimlane;fontStyle=0;childLayout=stackLayout;horizontal=1;startSize=26;fillColor=#dae8fc;horizontalStack=0;resizeParent=1;resizeParentMax=0;resizeLast=0;collapsible=1;marginBottom=0;strokeColor=#6c8ebf;" parent="1" vertex="1">
          <mxGeometry x="630" y="1360" width="200" height="184" as="geometry" />
        </mxCell>
        <mxCell id="QRH5ez9Q3UF65QWrglyg-12" value="+ id: bigint(20)" style="text;strokeColor=none;fillColor=none;align=left;verticalAlign=top;spacingLeft=4;spacingRight=4;overflow=hidden;rotatable=0;points=[[0,0.5],[1,0.5]];portConstraint=eastwest;" parent="QRH5ez9Q3UF65QWrglyg-11" vertex="1">
          <mxGeometry y="26" width="200" height="26" as="geometry" />
        </mxCell>
        <mxCell id="QRH5ez9Q3UF65QWrglyg-13" value="+ config_key: varchar(64)" style="text;strokeColor=none;fillColor=none;align=left;verticalAlign=top;spacingLeft=4;spacingRight=4;overflow=hidden;rotatable=0;points=[[0,0.5],[1,0.5]];portConstraint=eastwest;" parent="QRH5ez9Q3UF65QWrglyg-11" vertex="1">
          <mxGeometry y="52" width="200" height="28" as="geometry" />
        </mxCell>
        <mxCell id="QRH5ez9Q3UF65QWrglyg-17" value="+ config_value: varchar(64)" style="text;strokeColor=none;fillColor=none;align=left;verticalAlign=top;spacingLeft=4;spacingRight=4;overflow=hidden;rotatable=0;points=[[0,0.5],[1,0.5]];portConstraint=eastwest;" parent="QRH5ez9Q3UF65QWrglyg-11" vertex="1">
          <mxGeometry y="80" width="200" height="26" as="geometry" />
        </mxCell>
        <mxCell id="QRH5ez9Q3UF65QWrglyg-16" value="+ mirror_maker_id: bigint(20)" style="text;strokeColor=none;fillColor=none;align=left;verticalAlign=top;spacingLeft=4;spacingRight=4;overflow=hidden;rotatable=0;points=[[0,0.5],[1,0.5]];portConstraint=eastwest;" parent="QRH5ez9Q3UF65QWrglyg-11" vertex="1">
          <mxGeometry y="106" width="200" height="26" as="geometry" />
        </mxCell>
        <mxCell id="QRH5ez9Q3UF65QWrglyg-15" value="+ created_time: timestamp" style="text;strokeColor=none;fillColor=none;align=left;verticalAlign=top;spacingLeft=4;spacingRight=4;overflow=hidden;rotatable=0;points=[[0,0.5],[1,0.5]];portConstraint=eastwest;" parent="QRH5ez9Q3UF65QWrglyg-11" vertex="1">
          <mxGeometry y="132" width="200" height="26" as="geometry" />
        </mxCell>
        <mxCell id="QRH5ez9Q3UF65QWrglyg-14" value="+ updated_time: timestamp" style="text;strokeColor=none;fillColor=none;align=left;verticalAlign=top;spacingLeft=4;spacingRight=4;overflow=hidden;rotatable=0;points=[[0,0.5],[1,0.5]];portConstraint=eastwest;" parent="QRH5ez9Q3UF65QWrglyg-11" vertex="1">
          <mxGeometry y="158" width="200" height="26" as="geometry" />
        </mxCell>
        <mxCell id="QRH5ez9Q3UF65QWrglyg-18" style="edgeStyle=orthogonalEdgeStyle;rounded=0;orthogonalLoop=1;jettySize=auto;html=1;entryX=1;entryY=0.5;entryDx=0;entryDy=0;" parent="1" source="QRH5ez9Q3UF65QWrglyg-16" target="QRH5ez9Q3UF65QWrglyg-2" edge="1">
          <mxGeometry relative="1" as="geometry" />
        </mxCell>
        <mxCell id="QRH5ez9Q3UF65QWrglyg-21" style="edgeStyle=orthogonalEdgeStyle;rounded=0;orthogonalLoop=1;jettySize=auto;html=1;" parent="1" source="QRH5ez9Q3UF65QWrglyg-20" edge="1">
          <mxGeometry relative="1" as="geometry">
            <mxPoint x="160" y="180" as="targetPoint" />
            <Array as="points">
              <mxPoint x="80" y="1531" />
              <mxPoint x="80" y="180" />
            </Array>
          </mxGeometry>
        </mxCell>
        <mxCell id="QRH5ez9Q3UF65QWrglyg-30" style="edgeStyle=orthogonalEdgeStyle;rounded=0;orthogonalLoop=1;jettySize=auto;html=1;" parent="1" source="QRH5ez9Q3UF65QWrglyg-9" edge="1">
          <mxGeometry relative="1" as="geometry">
            <mxPoint x="160" y="180" as="targetPoint" />
            <Array as="points">
              <mxPoint x="40" y="1557" />
              <mxPoint x="40" y="180" />
            </Array>
          </mxGeometry>
        </mxCell>
        <mxCell id="QRH5ez9Q3UF65QWrglyg-32" value="&lt;h1&gt;待讨论&lt;/h1&gt;&lt;p class=&quot;p1&quot; style=&quot;margin: 0px ; font-stretch: normal ; line-height: normal ; font-family: &amp;#34;.pingfang sc&amp;#34;&quot;&gt;&lt;span class=&quot;s1&quot; style=&quot;font-stretch: normal ; line-height: normal ; font-family: &amp;#34;helvetica neue&amp;#34;&quot;&gt;1.&lt;/span&gt;审计、权限是否使用轻舟平台已经实现好的权限和审计功能&lt;/p&gt;&lt;p class=&quot;p1&quot; style=&quot;margin: 0px ; font-stretch: normal ; line-height: normal ; font-family: &amp;#34;.pingfang sc&amp;#34;&quot;&gt;&lt;br&gt;&lt;/p&gt;&lt;p class=&quot;p2&quot; style=&quot;margin: 0px ; font-stretch: normal ; line-height: normal ; font-family: &amp;#34;helvetica neue&amp;#34;&quot;&gt;2.&lt;span class=&quot;s2&quot; style=&quot;font-stretch: normal ; line-height: normal ; font-family: &amp;#34;.pingfang sc&amp;#34;&quot;&gt;重新梳理了&lt;/span&gt;topic&lt;span class=&quot;s2&quot; style=&quot;font-stretch: normal ; line-height: normal ; font-family: &amp;#34;.pingfang sc&amp;#34;&quot;&gt;、&lt;/span&gt;user&lt;span class=&quot;s2&quot; style=&quot;font-stretch: normal ; line-height: normal ; font-family: &amp;#34;.pingfang sc&amp;#34;&quot;&gt;、服务的关系。将&lt;/span&gt;kafka_topic_user&lt;span class=&quot;s2&quot; style=&quot;font-stretch: normal ; line-height: normal ; font-family: &amp;#34;.pingfang sc&amp;#34;&quot;&gt;,&lt;/span&gt;kafka_topic_application &lt;span class=&quot;s2&quot; style=&quot;font-stretch: normal ; line-height: normal ; font-family: &amp;#34;.pingfang sc&amp;#34;&quot;&gt;替换为&lt;/span&gt;kafka_topic_user_config&lt;span class=&quot;s2&quot; style=&quot;font-stretch: normal ; line-height: normal ; font-family: &amp;#34;.pingfang sc&amp;#34;&quot;&gt;,&lt;/span&gt;kafka_user_service_binding&lt;span class=&quot;s2&quot; style=&quot;font-stretch: normal ; line-height: normal ; font-family: &amp;#34;.pingfang sc&amp;#34;&quot;&gt;表。逻辑是将&lt;/span&gt;topic&lt;span class=&quot;s2&quot; style=&quot;font-stretch: normal ; line-height: normal ; font-family: &amp;#34;.pingfang sc&amp;#34;&quot;&gt;对应用户限流、读写权限配置在&lt;/span&gt;kafka_topic_user_config&lt;span class=&quot;s2&quot; style=&quot;font-stretch: normal ; line-height: normal ; font-family: &amp;#34;.pingfang sc&amp;#34;&quot;&gt;表中，然后在通过&lt;/span&gt;kafka_user_service_binding&lt;span class=&quot;s2&quot; style=&quot;font-stretch: normal ; line-height: normal ; font-family: &amp;#34;.pingfang sc&amp;#34;&quot;&gt;将用户和服务绑定在一起&lt;/span&gt;&lt;/p&gt;&lt;p class=&quot;p2&quot; style=&quot;margin: 0px ; font-stretch: normal ; line-height: normal ; font-family: &amp;#34;helvetica neue&amp;#34;&quot;&gt;&lt;span class=&quot;s2&quot; style=&quot;font-stretch: normal ; line-height: normal ; font-family: &amp;#34;.pingfang sc&amp;#34;&quot;&gt;&lt;br&gt;&lt;/span&gt;&lt;/p&gt;&lt;p class=&quot;p2&quot; style=&quot;margin: 0px ; font-stretch: normal ; line-height: normal ; font-family: &amp;#34;helvetica neue&amp;#34;&quot;&gt;3.kafka_cluster_node&lt;span class=&quot;Apple-converted-space&quot;&gt;&amp;nbsp; &lt;/span&gt;&lt;span class=&quot;s2&quot; style=&quot;font-stretch: normal ; line-height: normal ; font-family: &amp;#34;.pingfang sc&amp;#34;&quot;&gt;是否可删除&lt;/span&gt;node_type&lt;span class=&quot;s2&quot; style=&quot;font-stretch: normal ; line-height: normal ; font-family: &amp;#34;.pingfang sc&amp;#34;&quot;&gt;、&lt;/span&gt;available_zone&lt;span class=&quot;s2&quot; style=&quot;font-stretch: normal ; line-height: normal ; font-family: &amp;#34;.pingfang sc&amp;#34;&quot;&gt;等冗余字段，集群信息中有&lt;/span&gt;&lt;/p&gt;&lt;p class=&quot;p2&quot; style=&quot;margin: 0px ; font-stretch: normal ; line-height: normal ; font-family: &amp;#34;helvetica neue&amp;#34;&quot;&gt;&lt;span class=&quot;s2&quot; style=&quot;font-stretch: normal ; line-height: normal ; font-family: &amp;#34;.pingfang sc&amp;#34;&quot;&gt;&lt;br&gt;&lt;/span&gt;&lt;/p&gt;&lt;p class=&quot;p2&quot; style=&quot;margin: 0px ; font-stretch: normal ; line-height: normal ; font-family: &amp;#34;helvetica neue&amp;#34;&quot;&gt;4. cluster_id&lt;span class=&quot;s2&quot; style=&quot;font-stretch: normal ; line-height: normal ; font-family: &amp;#34;.pingfang sc&amp;#34;&quot;&gt;、&lt;/span&gt;node_id&lt;span class=&quot;s2&quot; style=&quot;font-stretch: normal ; line-height: normal ; font-family: &amp;#34;.pingfang sc&amp;#34;&quot;&gt;、&lt;/span&gt;user_id&lt;span class=&quot;s2&quot; style=&quot;font-stretch: normal ; line-height: normal ; font-family: &amp;#34;.pingfang sc&amp;#34;&quot;&gt;、&lt;/span&gt;topic_id&lt;span class=&quot;s2&quot; style=&quot;font-stretch: normal ; line-height: normal ; font-family: &amp;#34;.pingfang sc&amp;#34;&quot;&gt;这些&lt;/span&gt;UUID&lt;span class=&quot;s2&quot; style=&quot;font-stretch: normal ; line-height: normal ; font-family: &amp;#34;.pingfang sc&amp;#34;&quot;&gt;字段是否可删除，用主键自增&lt;/span&gt;id&lt;span class=&quot;s2&quot; style=&quot;font-stretch: normal ; line-height: normal ; font-family: &amp;#34;.pingfang sc&amp;#34;&quot;&gt;去关联查询。&lt;/span&gt;UUID&lt;span class=&quot;s2&quot; style=&quot;font-stretch: normal ; line-height: normal ; font-family: &amp;#34;.pingfang sc&amp;#34;&quot;&gt;用来做&lt;/span&gt;mysql&lt;span class=&quot;s2&quot; style=&quot;font-stretch: normal ; line-height: normal ; font-family: &amp;#34;.pingfang sc&amp;#34;&quot;&gt;的&lt;/span&gt;key&lt;span class=&quot;s2&quot; style=&quot;font-stretch: normal ; line-height: normal ; font-family: &amp;#34;.pingfang sc&amp;#34;&quot;&gt;查询效率较低，随机&lt;/span&gt;io&lt;span class=&quot;s2&quot; style=&quot;font-stretch: normal ; line-height: normal ; font-family: &amp;#34;.pingfang sc&amp;#34;&quot;&gt;。自增&lt;/span&gt;id&lt;span class=&quot;s2&quot; style=&quot;font-stretch: normal ; line-height: normal ; font-family: &amp;#34;.pingfang sc&amp;#34;&quot;&gt;更适合&lt;/span&gt;B+&lt;span class=&quot;s2&quot; style=&quot;font-stretch: normal ; line-height: normal ; font-family: &amp;#34;.pingfang sc&amp;#34;&quot;&gt;树数据结构&lt;/span&gt;&lt;/p&gt;&lt;p class=&quot;p2&quot; style=&quot;margin: 0px ; font-stretch: normal ; line-height: normal ; font-family: &amp;#34;helvetica neue&amp;#34;&quot;&gt;&lt;span class=&quot;s2&quot; style=&quot;font-stretch: normal ; line-height: normal ; font-family: &amp;#34;.pingfang sc&amp;#34;&quot;&gt;&lt;br&gt;&lt;/span&gt;&lt;/p&gt;&lt;p class=&quot;p2&quot; style=&quot;margin: 0px ; font-stretch: normal ; line-height: normal ; font-family: &amp;#34;helvetica neue&amp;#34;&quot;&gt;&lt;span class=&quot;s2&quot; style=&quot;font-stretch: normal ; line-height: normal ; font-family: &amp;#34;.pingfang sc&amp;#34;&quot;&gt;5.mm2目前只设计了基本信息和配置表，后续需要在根据界面需求增加表结构&lt;/span&gt;&lt;/p&gt;" style="text;html=1;strokeColor=#b85450;fillColor=#f8cecc;spacing=5;spacingTop=-20;whiteSpace=wrap;overflow=hidden;rounded=0;" parent="1" vertex="1">
          <mxGeometry x="1030" y="1315" width="560" height="245" as="geometry" />
        </mxCell>
      </root>
    </mxGraphModel>
  </diagram>
</mxfile>
